<svg width="360" height="128" viewBox="0 0 360 128" xmlns="http://www.w3.org/2000/svg">
  <!-- Hexágono -->
  <polygon points="64,16 104,48 104,80 64,112 24,80 24,48" fill="#0e1210" stroke="#1f2a24" stroke-width="3"></polygon>
  
  <!-- Detalles internos -->
  <polygon points="64,48 80,64 64,80 48,64" fill="#3EBFFF"></polygon>
  <polygon points="64,16 80,48 64,48 48,32" fill="#00CCCC"></polygon>
  <polygon points="64,112 80,80 64,80 48,96" fill="#00CCCC"></polygon>
  
  <!-- Líneas internas destacadas -->
  <line x1="64" y1="16" x2="64" y2="48" stroke="#00CCCC" stroke-width="1.5"></line>
  <line x1="64" y1="112" x2="64" y2="80" stroke="#00CCCC" stroke-width="1.5"></line>
  <line x1="24" y1="48" x2="48" y2="64" stroke="#00CCCC" stroke-width="1.5"></line>
  <line x1="24" y1="80" x2="48" y2="64" stroke="#00CCCC" stroke-width="1.5"></line>
  <line x1="104" y1="48" x2="80" y2="64" stroke="#00CCCC" stroke-width="1.5"></line>
  <line x1="104" y1="80" x2="80" y2="64" stroke="#00CCCC" stroke-width="1.5"></line>
  
  <!-- Puntos de énfasis -->
  <circle cx="64" cy="16" r="2.5" fill="#FFB000"></circle>
  <circle cx="64" cy="112" r="2.5" fill="#FFB000"></circle>
  <circle cx="24" cy="48" r="2.5" fill="#FFB000"></circle>
  <circle cx="104" cy="80" r="2.5" fill="#FFB000"></circle>
  
  <!-- Texto CoreUI -->
  <text x="140" y="75" fill="#FFB000" font-family="JetBrains Mono" font-size="44" font-weight="bold" alignment-baseline="middle">
    CoreUI
  </text>
</svg>
