<svg width="256" height="256" viewBox="0 0 64 64" xmlns="http://www.w3.org/2000/svg">
  <polygon points="32,6 52,18 52,46 32,58 12,46 12,18" fill="#0e1210" stroke="#1f2a24" stroke-width="2"/>
  <polygon points="32,24 40,32 32,40 24,32" fill="#3EBFFF"/>
  <polygon points="32,6 40,18 32,24 24,18" fill="#00CCCC"/>
  <polygon points="32,58 40,46 32,40 24,46" fill="#00CCCC"/>
  <line x1="32" y1="6" x2="32" y2="24" stroke="#00CCCC" stroke-width="1"/>
  <line x1="32" y1="58" x2="32" y2="40" stroke="#00CCCC" stroke-width="1"/>
  <line x1="12" y1="18" x2="24" y2="32" stroke="#00CCCC" stroke-width="1"/>
  <line x1="12" y1="46" x2="24" y2="32" stroke="#00CCCC" stroke-width="1"/>
  <line x1="52" y1="18" x2="40" y2="32" stroke="#00CCCC" stroke-width="1"/>
  <line x1="52" y1="46" x2="40" y2="32" stroke="#00CCCC" stroke-width="1"/>
  <circle cx="32" cy="6" r="1.5" fill="#FFB000"/>
  <circle cx="32" cy="58" r="1.5" fill="#FFB000"/>
  <circle cx="12" cy="18" r="1.5" fill="#FFB000"/>
  <circle cx="52" cy="46" r="1.5" fill="#FFB000"/>
</svg>